<?xml version="1.0"?>
<svg xmlns="http://www.w3.org/2000/svg" xmlns:xlink="http://www.w3.org/1999/xlink" xmlns:svgjs="http://svgjs.com/svgjs" version="1.1" width="512" height="512" x="0" y="0" viewBox="0 0 24 24" style="enable-background:new 0 0 512 512" xml:space="preserve"><g><path xmlns="http://www.w3.org/2000/svg" d="M9,9.5A2.5,2.5,0,1,1,6.5,7,2.5,2.5,0,0,1,9,9.5ZM24,12V10a4,4,0,0,0-4-4H15a4,4,0,0,0-4,4v2ZM2,14V3A1,1,0,0,0,0,3V21a1,1,0,0,0,2,0V19H22v2a1,1,0,0,0,2,0V14Z" fill="#ffffff" data-original="#000000"/></g></svg>
